<?xml version="1.0" encoding="UTF-8"?>
<svg id="Layer_1" data-name="Layer 1" xmlns="http://www.w3.org/2000/svg" viewBox="0 0 577.019 577.019">
  <g id="Buck_circle" data-name="Buck circle">
    <path d="M288.51,14.18c-151.265,0-274.33,123.064-274.33,274.329s123.064,274.33,274.329,274.33c151.265,0,274.33-123.064,274.33-274.329S439.775,14.18,288.51,14.18ZM288.509,544.374c-141.31,0-255.864-114.554-255.864-255.864,0-141.31,114.554-255.864,255.864-255.864,141.309,0,255.864,114.554,255.863,255.864,0,141.31-114.554,255.864-255.864,255.864Z" style="fill: #c8a977;"/>
    <circle cx="288.509" cy="288.51" r="255.864" style="fill: #faf7ec;"/>
    <g>
      <path d="M349.495,166.074c1.764-.699,3.485-4.354,4.415-6.349.438-.955.255-2.074-.48-2.828-1.082-1.107-2.98-2.591-5.808-3.661-.438-.164-.93.097-1.028.559-2.633,12.242-5.303,14.426-5.102,14.955.7,1.873,3.327-.839,8.003-2.676Z" style="fill: none;"/>
      <path d="M447.323,368.153c.505.906,6.325-2.688,6.592-4.792,3.923-30.846.627-95.603-1.678-95.292-1.958.268,5.182,41.787-4.914,100.085Z" style="fill: none;"/>
      <path d="M322.608,198.774c1.812,1.186,4.689,1.818,4.829,1.587.17-.274-3.697-5.753-6.751-6.258-1.995-.322-3.77,0-5.382.772-.286.134-.189.626.128.663,2.609.316,5.199,1.952,7.176,3.236Z" style="fill: none;"/>
      <path d="M340.312,203.506c9.165,7.815,21.042-3.923,19.151-3.473-1.825.426-7.651,2.639-9.506,2.84-3.259.359-6.288.462-7.133-2.895-1.028-4.063,2.542-5.333,4.233-7.869,2.53-3.801-.225-7.341,1.958-9.785,3.308-3.704,8.964-6.179,13.702-7.876.407-.146.255-.76-.171-.7-6.319.931-13.118,3.801-17.612,8.265-5.862,5.784-10.546,11.33-9.165,15.575.632,1.958,2.803,4.434,4.543,5.917Z" style="fill: none;"/>
      <path d="M426.968,491.427c2.658-1.989,3.558-1.587,9.761-4.409.894-.407,2.749-9.177,1.782-8.551-4.975,3.187-42.024,18.993-74.305,6.246-2.974-1.174-1.624,10.467-.596,10.473,31.564,3.248,36.526.462,36.648,1.648.414,3.965.474,5.644.815,8.891-19.735-.122-19.352,10.266-20.72,15.137-.608,2.138-.453,4.32-.023,6.47,18.767-7.22,36.474-16.559,52.808-27.774-1.703.497-3.377.879-4.96,1.016-1.521.128-2.165-8.119-1.21-9.147ZM422.49,501.367c-3.094,2.105-10.825,3.169-15.167,3.383-1.424.07-2.805-8.588-1.621-9.293,1.4-.833,9.856-1.277,16.532-3.44,1.181-.383,1.395,8.574.256,9.35Z" style="fill: none;"/>
      <path d="M227.237,183.114c-.438-.529-1.253-.547-1.703-.03-1.587,1.849-2.499,3.631-3.004,4.993-.48,1.314-.061,2.785,1.046,3.637,1.794,1.381,4.683,3.315,6.447,3.327,3.509.018,8.575.7,8.344-1.283-.067-.56-3.363-1.265-11.129-10.643Z" style="fill: none;"/>
      <path d="M391.914,261.396c-2.949,2.238,1.095,13.009,5.267,12.303,3.661-.62-3.765-7.505,11.141-11.123,1.648-.401.973-5.255-.328-6.009-3.631-2.11-12.729,2.287-16.08,4.829Z" style="fill: none;"/>
      <path d="M445.322,364.759c9.706-48.908,2.141-103.442,1.18-107.389-1.216-4.957-.529-13.009-5.723-13.708-10.266.633-23.019,3.655-26.2,8.156-1.83,2.013-5.291,16.676,3.473,19.935,2.274.45,4.367-2.828,6.598-2.378,2.895.59,2.724,6.069,2.615,8.484-.992,23.134.036,25.305-.961,48.409-.292,6.836.724,10.43-5.674,9.98-22.538-1.587-39.463-.578-57.179,2.207-.931.146-1.77.651-2.348,1.393-18.293,23.323-.584,45.983-.493,46.068,9.013.055,81.774-6.374,84.711-21.158Z" style="fill: none;"/>
      <path d="M361.208,325.527c.724,1.593,1.526,3.625,1.581,5.978.012.651.517,1.18,1.162,1.192,12.881.182,28.389-1.064,56.37-.894,3.211-5.254.596-19.564.043-30.986-1.411-2.226-.572-3.996-9.573-4.731-2.962-.243-6.197.219-9.506.395-.669.037-1.289.347-1.691.882-6.027,7.912-19.248,17.947-25.372,25.987-.146.182-.432.128-.426-.11.225-7.718,12.905-19.875,16-25.932.122-.237-.054-.511-.322-.505-7.589.225-23.268,2.877-28.784,3.065-.809.024-1.533.493-1.91,1.204-3.126,5.893-8.314,13.209-13.124,17.661-.371.341-.159.949.346.991,5.486.456,13.447,1.873,15.204,5.802Z" style="fill: none;"/>
      <path d="M381.569,411.934c-.918-.93-10.156,4.865-17.655,16.925-9.834,15.836-7.146,30.773-3.746,30.578,3.856-.225-.189-10.199,6.532-24.266,5.279-11.044,16.961-21.121,14.869-23.238Z" style="fill: none;"/>
      <path d="M288.51,32.646c-141.31,0-255.864,114.554-255.864,255.863,0,141.31,114.554,255.864,255.864,255.864,6.302,0,12.529-.307,18.717-.755,4.674-23.171,20.61-43.474,20.953-47.777,1.101-13.55,2.761-12.115.754-18.111-1.751-7.316.371-22.812-3.85-29.052-18.384-27.179-39.664-59.49-43.507-64.909-11.22-15.788-13.781-27.939-13.349-31.387.535-4.275,3.57-15.733,7.225-19.078.146-.128,15.423-4.433,18.811-5.37.401-.11.687-.456.724-.876.177-2.025.614-7.955.772-10.108.036-.48.365-.894.827-1.009,3.15-.785,1.885-.505,4.464-1.04.523-.109.955-.487,1.125-.991,2.469-7.274,3.448-11.549,2.244-13.933-5.832-11.519-13.343-17.88-13.732-26.108-.772-16.378-15.928-30.378-13.16-30.542,1.228-.073.936,1.618,4.519,1.015,4.305-.724,4.482,2.682,4.78,2.488.352-.231-.615-3.485-2.396-3.947-.614-.158-1.447-.152-3.826.055-4.719.408-5.157-5.26-5.066-6.142-3.339.809-11.957,1.952-17.192-.243-9.257-3.88-21.663-30.59-19.315-30.597-.237-2.256,16.937-1.35,28.693,2.177-.627-.231,1.879-2.335,5.79-4.592-4.446.742-9.28,1.326-14.414,1.788-4.056.365-26.406-2.84-33.229-4.081-6.404-1.168-21.785-8.308-31.406-18.391-9.615-10.083-14.085-29.064-10.326-31.144,2.426-1.338,4.567,16.135,15.733,26.419,3.722,3.43,6.878,4.166,12.364,8.709,1.563-2.925,8.338-8.022,8.356-9.664-50.538-55.732-33.242-91.212-30.165-91.2,2.949.006,1.952,52.466,18.847,65.705,6.866,5.382-2.025-64.696,7.985-69.634,2.208-1.089-2.585,50.416.827,70.777.146.864,2.5,19.37,8.302,17.959,5.856-1.417,3.558-24.418,8.076-24.904,5.978-.651-1.295,25.829-4.416,30.396,7.474,11.208,18.245,12.875,22.946,13.842,7.675,1.575,13.258-.329,11.579-1.739-1.673-1.411-8.898-10.673-10.345-12.321-1.447-1.642-2.171-10.175-1.277-12.175.888-2.001,7.45,11.105,8.666,12.923,2.889,4.33,21.085,10.886,29.289,15.642,1.922,1.113,4.373.487,5.528-1.411,5.255-8.599,16.08-21.881,16.627-26.704.243-2.177.079-16.828,1.788-15.459,1.709,1.368,4.975,9.287,4.439,11.409-.535,2.129-2.712,13.671-3.558,15.691-.839,2.025,4.993,1.156,11.093-3.758,3.734-3.01,12.552-9.426,14.061-22.812-4.865-2.627-23.463-22.836-17.85-25.001,4.245-1.63,12.729,19.868,18.585,18.445,5.808-1.405-.578-18.938-.845-19.765-6.288-19.662-34.142-63.255-31.685-63.297,11.159-.201,35.358,66.168,38.995,58.243,8.952-19.51-15.958-65.687-13.336-67.043,2.724-1.417,34.349,22.198,14.948,94.885.772,1.453,9.129,2.877,11.859,4.762,2.797-6.55,5.267-8.648,7.006-13.398,5.212-14.261-.888-30.773,1.879-30.694,4.3.128,9.019,19.042,5.084,32.415-3.928,13.373-14.328,26.759-19.491,30.73-.511.389-1.125.863-1.825,1.399,6.501-3.412,12.443-5.595,15.678-4.506,2.366.797-2.123,23.512-8.204,32.433-8.526,12.467-18.999,5.583-20.27,13.045-3.703,21.766,5.255,55.118,10.886,76.172,1.897-.706,4.153-1.818,5.735-2.652.943-.499,2.086.11,2.208,1.168.304,2.706.663,5.832.894,5.729-.109,1.125,46.755,1.283,59.423.061.693-4.75,2.049-12.85.097-15.654-33.303,6.605-31.065-7.882-31.065-7.882,0,0-25.33,13.033-34.896,17.527-.7.328-1.521-.073-1.691-.827-.28-1.198-.681-2.84-.937-3.856-.134-.547.128-1.113.633-1.362,4.78-2.335,27.945-13.665,34.19-16.773.268-.128.456-.359.56-.632,3.467-9.256,20.982-10.302,20.982-10.302,0,0,3.807-5.644,7.456-7.298,9.34-4.22,22.91-4.822,29.316-7.175-.022-.031-.041-.058-.063-.089.078.029.251-.007.443-.057.379-.151.736-.307,1.054-.475,11.817-6.173,24.235-12.692,24.235-12.692,2.591-1.064,6.921,6.009,2.694,7.736-14.207,5.826-20.136,8.484-22.709,9.7-.128.061-.243.116-.353.17-.499.237-.839.407-1.088.529-.085.042-.159.079-.219.11-.036.018-.073.036-.109.055-.067.03-.14.067-.207.097-.018.012-.036.018-.054.024,2.068,4.774,7.62,28.626,8.508,42.237,1.727,26.668.815,47.449.371,75.643-.11,7.328-8.04,11.16-17.32,18.476-1.24.979-2.007,2.445-2.105,4.026-.73,11.494-4.829,38.32-2.98,42.79,6.988,17.077,11.348,34.392,7.395,56.17.66,1.935,1.348,4.761,1.945,8.402,60.635-46.788,99.733-120.129,99.733-202.641,0-141.31-114.554-255.864-255.864-255.864ZM303.227,304.253c.851-.389-.651,5.182-1.557,7.353-.225.529-.626.955-1.143,1.204-51.432,24.624-117.405,56.796-173.398,83.585-2.439,1.174,8.928,9.651,8.83,25.445-.048,8.891-3.764,29.435-15.812,26.783-12.12-2.67-17.15-9.591-20.173-14.225-6.489-9.925-2.749-24.862,2.548-31.405.651-.803,4.166-3.588,5.388-4.251,4.92-2.652,16.639-8.624,17.667-9.098,60.877-28.273,153.779-74.347,177.65-85.392Z" style="fill: none;"/>
      <path d="M106.45,405.792c-3.497,3.351-5.388,8.301-5.017,13.13,2.846-8.064,10.205-14.365,17.898-17.217,0,.091,0,.183.456-.347-4.805-.584-9.84,1.089-13.337,4.434Z" style="fill: none;"/>
      <path d="M247.963,209.192c-.341-.085-.541.371-.243.566,6.021,3.904,9.907,13.027,20.148,13.088.736.006,1.429-.225,1.344-.955-.03-.243-.049-.493-.073-.742-.481-6.209-15.849-10.637-21.176-11.956Z" style="fill: none;"/>
      <path d="M428.757,387.833c-12.838,5.735-24.686,12.115-29.94,15.064-5.303,2.986-16.037,43.55-14.718,47.035,1.685,4.452,14.802-19.224,21.255-16.353,2.706,1.192-32.147,40.132-22.891,38.837.559-.079,33.382-27.714,37.171-26.917,3.004.633-12.802,32.196-10.023,33.783,2.293,1.302,12.188-4.944,16.177-23.457,5.303-24.594,6.538-29.277,3.935-67.402-.031-.48-.529-.785-.967-.59Z" style="fill: none;"/>
      <path d="M301.669,275.725c-7.578,2.256-4.847-3.588-5.802-4.646-.067-.073-1.77-.851-1.782-.754-.511,4.075,3.406,14.571,4.397,14.425,4.872-.718,3.74-9.256,3.187-9.025Z" style="fill: none;"/>
      <path d="M306.371,261.731c17.266-3.375,8.593-.547,11.02,2.135,4.902,5.437.474,7.724-2.998,8.782-.76.231-1.015.967-.553,1.612,3.223,4.525,12.619,6.24,14.985,3.254,1.156-1.466-.219-7.943-3.619-14.839-1.904-3.868-3.126-4.665-2.64-4.975,1.253-.785,6.678,7.742,8.393,17.935.061.359-.219,2.037.104,2.025,6.051-.255,6.477-18.391,6.526-20.921.158-7.456.559-13.957-.462-21.267-.195-1.399-.432-9.287-1.873-10.077-.019-.012-.086-.03-.183-.043-1.405,2.457-4.501,3.278-10.454,2.53-2.031-.255-3.363.353-4.275,1.295-4.993,9.074-1.88,18.786-2.719,18.245-3.989-2.572,1.788-21.614,1.855-21.65.012-.006.018-.012.03-.018.73-1.745,1.606-3.424,2.585-4.671,3.138-3.971,8.556-3.929,13.015-1.417-.018-.225.097-.687.127-.791.037-.11.128-.535.177-1.162-7.316-4.166-13.27-.772-17.314,8.289-.183.407-2.95,4.622-3.838,4.202-.675-.322,7.712-14.936,12.565-15.982,1.697-.365,5.589.328,8.593,1.818-.261-3.631-3.6-10.734-14.675-12.2-3.467-.462-5.06-6.452-13.385-5.048-5.492.93-6.38,7.687-9.767,8.259-2.281.383-11.507-2.299-14.997-1.575-3.071.632-5.291,3.004-8.624,9.408-3.041,5.857-2.226,13.161.316,16.153.164.195,6.033-.067,6.592.9.176.31.146.493-.207.499-.76.018-1.472-.122-3.132.158-2.189.371-3.631,1.186-4.774,1.922-.165.097-.079.347.109.341,1.715-.079,3.205-.116,3.29-.189,1.843-1.545,4.525-.979,4.969-.821,1.058.371,2.949,1.855,7.511,9.95.042.067.997-2.749-4.64-9.907-2.007-2.542,5.504.255,7.571,10.144,1.971,9.463.919,17.241,1.259,20.848.006.061.085.073.109.018,1.387-2.937,7.414-7.742,11.209-8.776,6.952-1.897,12.705-1.076,13.592-.298.097.085.079.499-.268.474-17.241-.943-20.592,5.905-23.396,9.287-.097.122-.553,1.259-.261,1.381,2.676,1.119,6.099-3.965,12.552-5.236Z" style="fill: none;"/>
      <path d="M350.65,293.951c.079-.164.067-.347-.024-.505-4.507-8.107-6.83-32.993-9.913-49.084-.067-.335-.553-.286-.553.049-.037,11.208-1.442,40.357-1.582,41.47-.128.997-17.971,24.989-17.898,28.924.006.341.152.645.487.7,6.872,1.234,25.938-13.811,29.483-21.553Z" style="fill: none;"/>
      <path d="M330.861,280.067c.073-.237-.067-.487-.304-.413-8.015,2.354-8.849.566-9.08.991-7.219,13.313-16.597,3.546-18.014,4.938-.645.645-1.685,1.806-2.335,2.317-.128.097-.146.286-.036.401,13.227,14.407,24.277,10.448,29.769-8.235Z" style="fill: none;"/>
      <path d="M445.511,238.183c.006,0,.012-.006.018-.006.019-.008.034-.016.053-.024-.192.05-.364.087-.443.057.022.031.041.058.063.089.001,0,.003,0,.004-.001.103-.036.201-.073.304-.116Z" style="fill: #051c2c;"/>
      <path d="M107.91,398.743c-1.222.663-4.738,3.448-5.388,4.251-5.297,6.544-9.037,21.48-2.548,31.405,3.023,4.634,8.052,11.555,20.173,14.225,12.048,2.652,15.763-17.892,15.812-26.783.098-15.794-11.269-24.272-8.83-25.445,55.993-26.789,121.966-58.961,173.398-83.585.517-.249.918-.675,1.143-1.204.906-2.171,2.408-7.742,1.557-7.353-23.87,11.044-116.773,57.118-177.65,85.392-1.028.474-12.747,6.446-17.667,9.098ZM119.331,401.705c-7.693,2.852-15.052,9.153-17.898,17.217-.371-4.829,1.52-9.779,5.017-13.13,3.497-3.345,8.533-5.017,13.337-4.434-.456.529-.456.438-.456.347Z" style="fill: #051c2c;"/>
      <path d="M422.234,492.018c-6.677,2.163-15.132,2.606-16.532,3.44-1.184.705.196,9.364,1.621,9.293,4.342-.214,12.073-1.278,15.167-3.383,1.139-.776.925-9.732-.256-9.35Z" style="fill: #051c2c;"/>
      <path d="M435.3,426.579c-1.849-4.47,2.25-31.296,2.98-42.79.098-1.581.864-3.047,2.105-4.026,9.28-7.316,17.211-11.147,17.32-18.476.444-28.194,1.356-48.975-.371-75.643-.888-13.611-6.44-37.463-8.508-42.237.018-.006.036-.012.054-.024.067-.03.14-.067.207-.097.036-.018.073-.036.109-.055.061-.03.134-.067.219-.11.249-.122.59-.292,1.088-.529.109-.055.225-.11.353-.17,2.573-1.216,8.502-3.874,22.709-9.7,4.226-1.727-.104-8.8-2.694-7.736,0,0-12.418,6.519-24.235,12.692-.318.168-.674.324-1.054.475-.019.008-.034.016-.053.024-.006,0-.012.006-.018.006-.103.042-.201.079-.304.116-.001,0-.003,0-.004.001-6.406,2.353-19.976,2.955-29.316,7.175-3.649,1.654-7.456,7.298-7.456,7.298,0,0-17.515,1.046-20.982,10.302-.104.274-.292.505-.56.632-6.245,3.108-29.41,14.438-34.19,16.773-.505.249-.766.815-.633,1.362.255,1.016.657,2.658.937,3.856.17.754.991,1.156,1.691.827,9.566-4.494,34.896-17.527,34.896-17.527,0,0-2.238,14.486,31.065,7.882,1.952,2.804.596,10.904-.097,15.654-12.668,1.222-59.533,1.064-59.423-.061-.231.103-.59-3.023-.894-5.729-.122-1.058-1.265-1.666-2.208-1.168-1.581.833-3.838,1.946-5.735,2.652-5.632-21.054-14.59-54.406-10.886-76.172,1.271-7.462,11.744-.578,20.27-13.045,6.081-8.922,10.57-31.636,8.204-32.433-3.235-1.089-9.177,1.095-15.678,4.506.7-.535,1.314-1.009,1.825-1.399,5.163-3.971,15.563-17.357,19.491-30.73,3.935-13.373-.784-32.287-5.084-32.415-2.767-.079,3.333,16.432-1.879,30.694-1.739,4.75-4.209,6.848-7.006,13.398-2.73-1.885-11.087-3.308-11.859-4.762,19.401-72.687-12.224-96.302-14.948-94.885-2.621,1.356,22.289,47.534,13.336,67.043-3.637,7.924-27.835-58.444-38.995-58.243-2.457.042,25.397,43.635,31.685,63.297.267.827,6.653,18.36.845,19.765-5.856,1.423-14.34-20.075-18.585-18.445-5.613,2.165,12.985,22.374,17.85,25.001-1.508,13.386-10.327,19.802-14.061,22.812-6.099,4.914-11.932,5.784-11.093,3.758.846-2.019,3.023-13.562,3.558-15.691.535-2.122-2.731-10.041-4.439-11.409-1.709-1.368-1.545,13.282-1.788,15.459-.547,4.823-11.372,18.105-16.627,26.704-1.156,1.898-3.606,2.524-5.528,1.411-8.204-4.756-26.4-11.312-29.289-15.642-1.216-1.818-7.778-14.924-8.666-12.923-.894,2.001-.17,10.533,1.277,12.175,1.447,1.648,8.672,10.91,10.345,12.321,1.679,1.411-3.904,3.314-11.579,1.739-4.701-.967-15.472-2.633-22.946-13.842,3.12-4.567,10.393-31.046,4.416-30.396-4.519.486-2.22,23.487-8.076,24.904-5.802,1.411-8.156-17.095-8.302-17.959-3.412-20.361,1.381-71.866-.827-70.777-10.01,4.938-1.119,75.016-7.985,69.634-16.895-13.24-15.897-65.699-18.847-65.705-3.078-.012-20.374,35.468,30.165,91.2-.018,1.642-6.793,6.738-8.356,9.664-5.486-4.543-8.642-5.279-12.364-8.709-11.166-10.284-13.306-27.756-15.733-26.419-3.759,2.08.711,21.061,10.326,31.144,9.621,10.083,25.002,17.223,31.406,18.391,6.823,1.241,29.173,4.446,33.229,4.081,5.133-.462,9.968-1.046,14.414-1.788-3.91,2.256-6.416,4.36-5.79,4.592-11.756-3.527-28.93-4.433-28.693-2.177-2.348.006,10.059,26.716,19.315,30.597,5.236,2.195,13.853,1.052,17.192.243-.091.882.346,6.55,5.066,6.142,2.378-.207,3.211-.213,3.826-.055,1.782.462,2.749,3.716,2.396,3.947-.298.195-.475-3.211-4.78-2.488-3.582.602-3.29-1.089-4.519-1.015-2.767.164,12.388,14.164,13.16,30.542.389,8.228,7.9,14.59,13.732,26.108,1.204,2.384.225,6.659-2.244,13.933-.17.505-.602.882-1.125.991-2.579.535-1.314.255-4.464,1.04-.462.116-.791.529-.827,1.009-.158,2.153-.596,8.082-.772,10.108-.036.42-.322.766-.724.876-3.387.937-18.664,5.242-18.811,5.37-3.655,3.345-6.69,14.803-7.225,19.078-.432,3.448,2.129,15.599,13.349,31.387,3.844,5.419,25.123,37.73,43.507,64.909,4.221,6.24,2.099,21.736,3.85,29.052,2.007,5.996.346,4.561-.754,18.111-.343,4.303-16.279,24.606-20.953,47.777,25.599-1.853,50.145-7.454,73.104-16.287-.431-2.15-.585-4.331.023-6.47,1.368-4.871.985-15.259,20.72-15.137-.34-3.248-.401-4.926-.815-8.891-.122-1.186-5.084,1.6-36.648-1.648-1.028-.006-2.378-11.646.596-10.473,32.281,12.747,69.33-3.059,74.305-6.246.967-.626-.888,8.143-1.782,8.551-6.203,2.822-7.103,2.42-9.761,4.409-.955,1.028-.31,9.274,1.21,9.147,1.583-.137,3.256-.519,4.96-1.016,3.92-2.691,7.744-5.507,11.502-8.407-.597-3.641-1.285-6.468-1.945-8.402,3.953-21.778-.408-39.093-7.395-56.17ZM408.322,262.576c-14.906,3.619-7.48,10.503-11.141,11.123-4.172.706-8.216-10.065-5.267-12.303,3.351-2.542,12.449-6.939,16.08-4.829,1.301.754,1.977,5.607.328,6.009ZM230.022,195.04c-1.763-.012-4.652-1.946-6.447-3.327-1.107-.851-1.526-2.323-1.046-3.637.505-1.362,1.417-3.144,3.004-4.993.45-.517,1.265-.499,1.703.03,7.766,9.378,11.062,10.083,11.129,10.643.231,1.983-4.835,1.301-8.344,1.283ZM452.237,268.068c2.305-.31,5.601,64.447,1.678,95.292-.267,2.104-6.087,5.698-6.592,4.792,10.096-58.298,2.956-99.817,4.914-100.085ZM346.594,153.795c.098-.462.59-.724,1.028-.559,2.828,1.07,4.726,2.554,5.808,3.661.736.754.918,1.873.48,2.828-.931,1.995-2.652,5.65-4.415,6.349-4.676,1.837-7.304,4.549-8.003,2.676-.201-.529,2.469-2.712,5.102-14.955ZM344.934,182.013c4.494-4.464,11.294-7.334,17.612-8.265.426-.061.578.554.171.7-4.738,1.697-10.393,4.172-13.702,7.876-2.183,2.445.572,5.984-1.958,9.785-1.691,2.536-5.261,3.807-4.233,7.869.845,3.357,3.874,3.254,7.133,2.895,1.855-.201,7.681-2.414,9.506-2.84,1.891-.45-9.986,11.287-19.151,3.473-1.739-1.484-3.91-3.959-4.543-5.917-1.381-4.245,3.302-9.791,9.165-15.575ZM315.305,194.876c1.612-.772,3.387-1.095,5.382-.772,3.053.505,6.921,5.984,6.751,6.258-.14.231-3.016-.401-4.829-1.587-1.977-1.283-4.567-2.919-7.176-3.236-.316-.036-.414-.529-.128-.663ZM267.868,222.845c-10.241-.061-14.128-9.183-20.148-13.088-.298-.195-.097-.651.243-.566,5.327,1.32,20.695,5.747,21.176,11.956.024.249.042.499.073.742.085.73-.608.961-1.344.955ZM294.08,265.587c2.804-3.381,6.154-10.229,23.396-9.287.347.024.365-.389.268-.474-.888-.778-6.641-1.599-13.592.298-3.795,1.034-9.822,5.838-11.209,8.776-.024.055-.103.042-.109-.018-.341-3.606.712-11.385-1.259-20.848-2.068-9.889-9.578-12.686-7.571-10.144,5.637,7.158,4.683,9.974,4.64,9.907-4.561-8.095-6.453-9.579-7.511-9.95-.444-.158-3.126-.724-4.969.821-.085.073-1.575.11-3.29.189-.188.006-.274-.243-.109-.341,1.143-.736,2.585-1.551,4.774-1.922,1.66-.28,2.372-.14,3.132-.158.353-.006.383-.189.207-.499-.559-.967-6.428-.706-6.592-.9-2.542-2.992-3.357-10.296-.316-16.153,3.333-6.404,5.553-8.776,8.624-9.408,3.491-.724,12.717,1.958,14.997,1.575,3.387-.572,4.275-7.328,9.767-8.259,8.326-1.405,9.919,4.586,13.385,5.048,11.075,1.466,14.413,8.569,14.675,12.2-3.004-1.49-6.897-2.183-8.593-1.818-4.853,1.046-13.24,15.66-12.565,15.982.888.42,3.655-3.795,3.838-4.202,4.044-9.062,9.998-12.455,17.314-8.289-.049.626-.14,1.052-.177,1.162-.03.103-.146.566-.127.791-4.458-2.512-9.877-2.554-13.015,1.417-.979,1.247-1.855,2.925-2.585,4.671-.012.006-.018.012-.03.018-.067.036-5.844,19.078-1.855,21.65.839.541-2.274-9.171,2.719-18.245.912-.943,2.244-1.551,4.275-1.295,5.954.748,9.049-.073,10.454-2.53.097.012.164.03.183.043,1.441.791,1.679,8.678,1.873,10.077,1.021,7.31.62,13.811.462,21.267-.049,2.53-.474,20.665-6.526,20.921-.322.012-.043-1.666-.104-2.025-1.715-10.193-7.14-18.719-8.393-17.935-.487.31.736,1.107,2.64,4.975,3.4,6.896,4.774,13.373,3.619,14.839-2.366,2.986-11.762,1.271-14.985-3.254-.462-.645-.207-1.381.553-1.612,3.472-1.058,7.9-3.345,2.998-8.782-2.426-2.682,6.246-5.51-11.02-2.135-6.453,1.271-9.877,6.355-12.552,5.236-.292-.122.164-1.259.261-1.381ZM298.483,284.75c-.991.146-4.908-10.351-4.397-14.425.012-.097,1.715.681,1.782.754.955,1.058-1.776,6.902,5.802,4.646.553-.231,1.685,8.308-3.187,9.025ZM301.092,288.301c-.11-.116-.092-.304.036-.401.651-.511,1.691-1.673,2.335-2.317,1.417-1.393,10.795,8.374,18.014-4.938.231-.426,1.065,1.362,9.08-.991.237-.073.377.176.304.413-5.492,18.683-16.542,22.642-29.769,8.235ZM321.167,315.504c-.334-.055-.48-.359-.487-.7-.073-3.935,17.77-27.927,17.898-28.924.14-1.113,1.545-30.262,1.582-41.47,0-.335.486-.383.553-.049,3.084,16.092,5.407,40.978,9.913,49.084.091.158.103.341.024.505-3.546,7.742-22.611,22.788-29.483,21.553ZM345.658,318.734c4.81-4.452,9.998-11.768,13.124-17.661.377-.712,1.101-1.18,1.91-1.204,5.516-.189,21.194-2.84,28.784-3.065.268-.006.444.268.322.505-3.095,6.057-15.775,18.214-16,25.932-.006.237.28.292.426.11,6.124-8.04,19.346-18.075,25.372-25.987.401-.535,1.022-.845,1.691-.882,3.309-.176,6.544-.638,9.506-.395,9.001.736,8.162,2.506,9.573,4.731.553,11.421,3.168,25.731-.043,30.986-27.981-.17-43.489,1.076-56.37.894-.645-.012-1.15-.541-1.162-1.192-.055-2.354-.857-4.385-1.581-5.978-1.757-3.929-9.718-5.346-15.204-5.802-.505-.043-.718-.651-.346-.991ZM361.105,339.849c.578-.742,1.417-1.247,2.348-1.393,17.716-2.785,34.641-3.795,57.179-2.207,6.398.45,5.382-3.144,5.674-9.98.997-23.104-.031-25.275.961-48.409.109-2.414.28-7.894-2.615-8.484-2.232-.45-4.324,2.828-6.598,2.378-8.764-3.26-5.303-17.922-3.473-19.935,3.181-4.5,15.934-7.523,26.2-8.156,5.194.7,4.507,8.751,5.723,13.708.961,3.947,8.526,58.48-1.18,107.389-2.937,14.784-75.697,21.213-84.711,21.158-.091-.085-17.8-22.745.493-46.068ZM360.168,459.437c-3.399.195-6.088-14.742,3.746-30.578,7.499-12.06,16.737-17.856,17.655-16.925,2.092,2.116-9.591,12.194-14.869,23.238-6.72,14.067-2.676,24.04-6.532,24.266ZM425.789,455.825c-3.99,18.512-13.884,24.758-16.177,23.457-2.779-1.587,13.027-33.151,10.023-33.783-3.789-.797-36.611,26.838-37.171,26.917-9.256,1.295,25.597-37.645,22.891-38.837-6.453-2.871-19.571,20.805-21.255,16.353-1.32-3.485,9.414-44.049,14.718-47.035,5.254-2.949,17.102-9.329,29.94-15.064.438-.195.936.11.967.59,2.603,38.126,1.368,42.808-3.935,67.402Z" style="fill: #051c2c;"/>
    </g>
    <path d="M288.509,0C129.425,0,0,129.425,0,288.509c0,159.084,129.425,288.51,288.509,288.51,159.085,0,288.51-129.425,288.51-288.509C577.019,129.425,447.594,0,288.509,0ZM288.509,571.935c-156.532,0-283.426-126.894-283.426-283.426,0-156.532,126.894-283.426,283.426-283.426s283.426,126.894,283.426,283.426c0,156.532-126.895,283.426-283.426,283.426Z" style="fill: #c8a977;"/>
  </g>
</svg>