<?xml version="1.0" encoding="UTF-8"?>
<svg id="Layer_2" data-name="Layer 2" xmlns="http://www.w3.org/2000/svg" viewBox="0 0 218.301 199.83">
  <g>
    <path d="M108.008,89.734c5.158-.63,9.797-5.291,8.726-6.886-.691-1.028-4.229,3.766-9.993,4.064-1.921.099-3.21-.481-5.96-.492-.123-1.294-1.841-4.579-1.59-5.086,27.53-4.147,26.672-19.404,25.528-20.186-1.098-.75-8.964,15.542-17.32,15.281-3.397-.106,10.909-19.263,7.963-23.326-.649-.895-6.954,16.073-11.418,21.427-.189.226-3.968,5.285-5.905,3.373-1.953-1.928,2.513-8.371.909-9.675-2.119-1.723-3.573,8.228-3.13,10.42-4.537,1.52-8.802-.72-10.7-1.623-3.099-1.475-4.875-3.481-4.031-3.485.844-.004,4.983-.993,5.779-1.126.796-.133,2.405-2.558,2.387-3.397-.017-.839-4.513,1.493-5.251,1.74-2.474.827-16.851-4.845-15.176-2.188,2.058,3.263,6.239,7.285,11.635,11.55,1.451,1.147,10.258,5.866,12.989,7.227,2.565,1.278,9.4,3.018,14.557,2.388ZM92.881,84.388c-1.777-1.429-3.296-1.973-2.897-2.52.116-.159,1.54.515,6.264-.512.871,2.315.398,3.71.314,3.709-.158-.089-2.763.06-3.681-.677Z" style="fill: #c8a977;"/>
    <path d="M61.694,120.203c.649.895,6.953-16.073,11.418-21.426.189-.226,3.968-5.284,5.905-3.373,1.953,1.928-2.513,8.371-.909,9.675,2.119,1.723,3.573-8.228,3.131-10.42,4.537-1.52,8.802.72,10.699,1.623,3.1,1.475,4.876,3.481,4.031,3.486-.844.004-4.983.993-5.779,1.126-.796.133-2.405,2.558-2.387,3.397.017.839,4.513-1.493,5.251-1.74,2.474-.827,16.851,4.845,15.175,2.188-2.058-3.263-6.239-7.285-11.635-11.55-1.451-1.147-10.258-5.866-12.989-7.227-2.564-1.278-9.4-3.018-14.557-2.388-5.158.63-9.797,5.291-8.726,6.886.69,1.029,4.229-3.767,9.993-4.064,1.921-.099,3.21.481,5.96.492.123,1.294,1.841,4.58,1.59,5.087-27.53,4.147-26.672,19.404-25.528,20.186,1.098.75,8.964-15.542,17.319-15.28,3.397.106-10.908,19.263-7.963,23.325ZM80.495,88.241c.158.089,2.763-.061,3.681.677,1.777,1.429,3.296,1.973,2.898,2.52-.116.159-1.54-.515-6.264.512-.871-2.315-.398-3.71-.314-3.709Z" style="fill: #c8a977;"/>
  </g>
  <ellipse cx="43.634" cy="41.301" rx="7.512" ry="7.447" style="fill: #c8a977;"/>
  <polygon points="38.525 61.537 48.311 61.537 44.938 68.666 44.938 172.101 43.418 179.984 43.418 179.983 43.418 179.984 43.418 179.981 41.899 172.101 41.899 172.101 41.899 68.666 38.525 61.537" style="fill: #c8a977;"/>
  <polygon points="63.935 46.197 63.935 36.497 71.127 39.84 175.469 39.84 183.422 41.346 183.421 41.347 183.422 41.347 183.418 41.347 175.469 42.852 175.469 42.853 71.127 42.853 63.935 46.197" style="fill: #c8a977;"/>
</svg>